<?xml version="1.0" encoding="UTF-8" standalone="no"?>
<!-- Created with Inkscape (http://www.inkscape.org/) -->

<svg
   xmlns:dc="http://purl.org/dc/elements/1.1/"
   xmlns:cc="http://creativecommons.org/ns#"
   xmlns:rdf="http://www.w3.org/1999/02/22-rdf-syntax-ns#"
   xmlns:svg="http://www.w3.org/2000/svg"
   xmlns="http://www.w3.org/2000/svg"
   xmlns:sodipodi="http://sodipodi.sourceforge.net/DTD/sodipodi-0.dtd"
   xmlns:inkscape="http://www.inkscape.org/namespaces/inkscape"
   width="118.53719mm"
   height="82.703423mm"
   viewBox="0 0 118.5372 82.703424"
   version="1.1"
   id="svg8"
   inkscape:version="0.92.4 (5da689c313, 2019-01-14)"
   sodipodi:docname="ghost.svg"
   inkscape:export-filename="C:\Users\MathieuNassar\Desktop\Zeichnung.png"
   inkscape:export-xdpi="96"
   inkscape:export-ydpi="96">
  <defs
     id="defs2">
    <inkscape:path-effect
       effect="bspline"
       id="path-effect3725"
       is_visible="true"
       weight="33.333333"
       steps="2"
       helper_size="0"
       apply_no_weight="true"
       apply_with_weight="true"
       only_selected="false" />
    <inkscape:path-effect
       effect="bspline"
       id="path-effect3721"
       is_visible="true"
       weight="33.333333"
       steps="2"
       helper_size="0"
       apply_no_weight="true"
       apply_with_weight="true"
       only_selected="false" />
  </defs>
  <sodipodi:namedview
     id="base"
     pagecolor="#ffffff"
     bordercolor="#666666"
     borderopacity="1.0"
     inkscape:pageopacity="0.0"
     inkscape:pageshadow="2"
     inkscape:zoom="0.9"
     inkscape:cx="230.7578"
     inkscape:cy="121.76475"
     inkscape:document-units="mm"
     inkscape:current-layer="layer1"
     showgrid="false"
     inkscape:object-paths="false"
     inkscape:window-width="955"
     inkscape:window-height="655"
     inkscape:window-x="146"
     inkscape:window-y="292"
     inkscape:window-maximized="0"
     fit-margin-top="0"
     fit-margin-left="0"
     fit-margin-right="0"
     fit-margin-bottom="0" />
  <metadata
     id="metadata5">
    <rdf:RDF>
      <cc:Work
         rdf:about="">
        <dc:format>image/svg+xml</dc:format>
        <dc:type
           rdf:resource="http://purl.org/dc/dcmitype/StillImage" />
        <dc:title />
      </cc:Work>
    </rdf:RDF>
  </metadata>
  <g
     inkscape:label="Ebene 1"
     inkscape:groupmode="layer"
     id="layer1"
     transform="translate(-35.125964,-161.64767)">
    <rect
       style="fill:#5b1818;fill-opacity:0;stroke-width:0.35022715"
       id="rect4783"
       width="123.6328"
       height="123.63277"
       x="32.509022"
       y="138.39539"
       inkscape:export-xdpi="103.85176"
       inkscape:export-ydpi="103.85176" />
    <path
       style="fill:none;stroke:#000000;stroke-width:0.26458332px;stroke-linecap:butt;stroke-linejoin:miter;stroke-opacity:1"
       d="m 37.319395,102.90567 c -1.6047,-1.9127 -7.427508,-4.914704 -9.678149,-8.334339 -2.250641,-3.419634 -2.250641,-7.937965 -0.03817,-7.524316 2.212466,0.413649 9.16136,8.807986 9.905141,8.356785 0.743781,-0.451201 -0.767506,-12.143422 0.577799,-15.844823 1.345305,-3.701402 4.99799,-3.659001 7.912621,-3.063217 2.91463,0.595785 5.428214,1.922726 6.955559,5.011865 1.527345,3.089139 3.712844,12.456253 5.824818,12.741609 2.111974,0.285355 9.149455,-6.804128 11.716883,-7.421589 2.567428,-0.61746 2.392473,3.356915 -0.345577,6.674737 -2.73805,3.317822 -8.035722,5.905445 -9.942741,9.106358 -1.90702,3.2009 -0.381172,7.11912 3.703704,7.58494 4.084877,0.46581 16.494347,-4.65677 17.014181,-4.47539 0.519834,0.18139 -3.831117,7.97105 -10.578887,12.12001 -6.747771,4.14896 -17.778681,8.03625 -23.714226,7.00588 -5.935545,-1.03038 -6.773313,-6.97855 -7.213355,-11.50001 -0.440042,-4.52146 -0.494895,-8.5258 -2.099596,-10.4385 z"
       id="path3723"
       inkscape:connector-curvature="0"
       inkscape:original-d="m 38.894148,102.63216 c -3.179291,-1.63951 -9.002098,-4.641511 -13.503543,-6.961869 2.65e-4,-4.518594 2.65e-4,-9.036925 0,-13.554991 4.425219,5.345126 11.374113,13.739464 13.27486,16.03617 C 38.252287,94.952561 36.741,83.26034 35.778371,75.815172 c 3.652948,0.04214 7.305633,0.08454 10.958051,0.127201 2.177007,1.148856 4.690591,2.475797 6.530229,3.447361 1.215194,5.206958 3.400694,14.574072 4.312058,18.481604 3.312275,-3.336748 10.349756,-10.426231 15.666003,-15.781764 -0.18114,4.120622 -0.356095,8.094997 -0.534539,12.142891 -5.297962,2.587629 -10.595633,5.175253 -15.894684,7.763685 1.485386,3.81337 3.011233,7.73159 4.454894,11.43971 6.725719,-2.7765 19.13519,-7.89908 20.749808,-8.56544 -0.57481,1.02931 -4.925759,8.81897 -7.389175,13.2291 -11.032269,3.88759 -22.063178,7.77488 -33.096351,11.66313 -0.837567,-5.94889 -1.675336,-11.89706 -2.513314,-17.84458 -0.04213,-3.09536 -0.09699,-7.0997 -0.127203,-9.28591 z"
       sodipodi:nodetypes="ccccccccccccccccc"
       inkscape:path-effect="#path-effect3725"
       inkscape:export-xdpi="103.85176"
       inkscape:export-ydpi="103.85176"
       transform="matrix(1.6849711,0,0,1.6849711,-8.3735363,33.485399)" />
    <ellipse
       id="path3727"
       cx="139.30276"
       cy="203.41833"
       rx="14.360396"
       ry="13.288724"
       style="stroke-width:0.44581524"
       inkscape:export-xdpi="103.85176"
       inkscape:export-ydpi="103.85176" />
    <ellipse
       id="path3817"
       cx="61.285095"
       cy="180.16309"
       rx="1.7146741"
       ry="5.6798582"
       style="stroke-width:0.38019252"
       inkscape:export-xdpi="103.85176"
       inkscape:export-ydpi="103.85176" />
    <ellipse
       id="path3817-8"
       cx="67.072128"
       cy="180.05591"
       rx="1.7146741"
       ry="5.6798582"
       style="stroke-width:0.38019252"
       inkscape:export-xdpi="103.85176"
       inkscape:export-ydpi="103.85176" />
    <path
       style="fill:#5b1818;fill-opacity:0;stroke-width:0.21433425"
       d="m 71.385141,243.70283 c -7.336563,-0.98552 -11.076739,-5.55153 -12.526999,-15.29296 -0.184277,-1.23778 -0.579885,-4.90289 -0.879134,-8.1447 -0.627538,-6.79825 -1.124582,-9.54605 -2.110681,-11.66848 -0.881078,-1.89639 -1.812993,-2.83301 -5.595106,-5.62336 -8.636191,-6.37157 -10.889154,-8.47905 -12.594799,-11.78149 -2.359901,-4.56921 -2.654643,-9.72196 -0.604672,-10.57109 0.327255,-0.13555 0.859656,-0.18004 1.183113,-0.0989 1.161278,0.29146 4.028342,2.71965 9.39356,7.95564 5.341611,5.21294 6.620066,6.26557 7.29516,6.00651 0.580978,-0.22294 0.637926,-1.84307 0.365412,-10.39549 -0.423885,-13.30291 0.07272,-16.84887 2.732077,-19.50823 2.138946,-2.13894 5.316744,-2.8132 9.817899,-2.08314 6.284257,1.01926 10.249356,3.66007 12.60158,8.39282 0.769976,1.54922 1.384938,3.18668 3.691943,9.83049 2.47575,7.1298 3.700917,9.73418 5.228356,11.11413 0.639799,0.57802 1.055713,0.78143 1.597824,0.78143 1.203519,0 3.869285,-1.54559 7.858873,-4.55651 2.052183,-1.54876 4.792193,-3.61862 6.088913,-4.59968 2.58704,-1.95729 5.37858,-3.48954 6.35742,-3.48954 0.82301,0 1.60981,0.80049 1.80395,1.83531 0.32563,1.73574 -0.61029,4.70938 -2.30336,7.31832 -1.49123,2.29793 -4.04884,4.72795 -9.08229,8.62924 -7.27212,5.63641 -9.548715,8.31661 -10.164306,11.96626 -1.00477,5.95694 3.808833,10.41134 10.448196,9.66853 3.97915,-0.44518 7.8392,-1.487 17.56794,-4.74157 4.27287,-1.42941 7.8303,-2.53747 7.9054,-2.46236 0.21165,0.21164 -0.86856,2.26759 -2.37611,4.5224 -1.99827,2.98879 -4.41214,5.91373 -7.04502,8.53661 -3.95258,3.93756 -7.24779,6.27767 -13.04377,9.26311 -8.181713,4.21429 -17.291173,7.39973 -24.801275,8.67261 -2.60735,0.44192 -7.330166,0.72284 -8.810094,0.52404 z m -9.474185,-58.16252 c 0.676195,-0.72581 0.942106,-1.91583 1.054933,-4.72116 0.149923,-3.7276 -0.547542,-6.42151 -1.662548,-6.42151 -1.012397,0 -1.765651,2.46883 -1.765651,5.78702 0,2.34596 0.317532,4.10773 0.918455,5.09587 0.484824,0.79723 0.887168,0.86908 1.454811,0.25978 z m 5.962788,-0.32704 c 1.244783,-1.89978 1.244783,-8.37177 0,-10.27155 -0.490664,-0.74884 -1.314758,-0.72693 -1.705524,0.0453 -1.224811,2.42059 -1.079248,8.92872 0.232501,10.39521 0.475556,0.53166 1.057697,0.46487 1.473023,-0.169 z"
       id="path4526"
       inkscape:connector-curvature="0"
       inkscape:export-xdpi="103.85176"
       inkscape:export-ydpi="103.85176" />
    <path
       style="fill:#5b1818;fill-opacity:0;stroke-width:0.21433425"
       d="m 71.385141,243.70283 c -7.336563,-0.98552 -11.076739,-5.55153 -12.526999,-15.29296 -0.184277,-1.23778 -0.579885,-4.90289 -0.879134,-8.1447 -0.627538,-6.79825 -1.124582,-9.54605 -2.110681,-11.66848 -0.881078,-1.89639 -1.812993,-2.83301 -5.595106,-5.62336 -8.636191,-6.37157 -10.889154,-8.47905 -12.594799,-11.78149 -2.359901,-4.56921 -2.654643,-9.72196 -0.604672,-10.57109 0.327255,-0.13555 0.859656,-0.18004 1.183113,-0.0989 1.161278,0.29146 4.028342,2.71965 9.39356,7.95564 5.341611,5.21294 6.620066,6.26557 7.29516,6.00651 0.580978,-0.22294 0.637926,-1.84307 0.365412,-10.39549 -0.423885,-13.30291 0.07272,-16.84887 2.732077,-19.50823 2.138946,-2.13894 5.316744,-2.8132 9.817899,-2.08314 6.284257,1.01926 10.249356,3.66007 12.60158,8.39282 0.769976,1.54922 1.384938,3.18668 3.691943,9.83049 2.47575,7.1298 3.700917,9.73418 5.228356,11.11413 0.639799,0.57802 1.055713,0.78143 1.597824,0.78143 1.203519,0 3.869285,-1.54559 7.858873,-4.55651 2.052183,-1.54876 4.792193,-3.61862 6.088913,-4.59968 2.58704,-1.95729 5.37858,-3.48954 6.35742,-3.48954 0.82301,0 1.60981,0.80049 1.80395,1.83531 0.32563,1.73574 -0.61029,4.70938 -2.30336,7.31832 -1.49123,2.29793 -4.04884,4.72795 -9.08229,8.62924 -7.27212,5.63641 -9.548715,8.31661 -10.164306,11.96626 -1.00477,5.95694 3.808833,10.41134 10.448196,9.66853 3.97915,-0.44518 7.8392,-1.487 17.56794,-4.74157 4.27287,-1.42941 7.8303,-2.53747 7.9054,-2.46236 0.21165,0.21164 -0.86856,2.26759 -2.37611,4.5224 -1.99827,2.98879 -4.41214,5.91373 -7.04502,8.53661 -3.95258,3.93756 -7.24779,6.27767 -13.04377,9.26311 -8.181713,4.21429 -17.291173,7.39973 -24.801275,8.67261 -2.60735,0.44192 -7.330166,0.72284 -8.810094,0.52404 z m -9.474185,-58.16252 c 0.676195,-0.72581 0.942106,-1.91583 1.054933,-4.72116 0.149923,-3.7276 -0.547542,-6.42151 -1.662548,-6.42151 -1.012397,0 -1.765651,2.46883 -1.765651,5.78702 0,2.34596 0.317532,4.10773 0.918455,5.09587 0.484824,0.79723 0.887168,0.86908 1.454811,0.25978 z m 5.962788,-0.32704 c 1.244783,-1.89978 1.244783,-8.37177 0,-10.27155 -0.490664,-0.74884 -1.314758,-0.72693 -1.705524,0.0453 -1.224811,2.42059 -1.079248,8.92872 0.232501,10.39521 0.475556,0.53166 1.057697,0.46487 1.473023,-0.169 z"
       id="path4528"
       inkscape:connector-curvature="0"
       inkscape:export-xdpi="103.85176"
       inkscape:export-ydpi="103.85176" />
    <path
       style="fill:#5b1818;fill-opacity:0;stroke-width:0.21433425"
       d="m 71.385141,243.70283 c -7.336563,-0.98552 -11.076739,-5.55153 -12.526999,-15.29296 -0.184277,-1.23778 -0.579885,-4.90289 -0.879134,-8.1447 -0.627538,-6.79825 -1.124582,-9.54605 -2.110681,-11.66848 -0.881078,-1.89639 -1.812993,-2.83301 -5.595106,-5.62336 -8.636191,-6.37157 -10.889154,-8.47905 -12.594799,-11.78149 -2.359901,-4.56921 -2.654643,-9.72196 -0.604672,-10.57109 0.327255,-0.13555 0.859656,-0.18004 1.183113,-0.0989 1.161278,0.29146 4.028342,2.71965 9.39356,7.95564 5.341611,5.21294 6.620066,6.26557 7.29516,6.00651 0.580978,-0.22294 0.637926,-1.84307 0.365412,-10.39549 -0.423885,-13.30291 0.07272,-16.84887 2.732077,-19.50823 2.138946,-2.13894 5.316744,-2.8132 9.817899,-2.08314 6.284257,1.01926 10.249356,3.66007 12.60158,8.39282 0.769976,1.54922 1.384938,3.18668 3.691943,9.83049 2.47575,7.1298 3.700917,9.73418 5.228356,11.11413 0.639799,0.57802 1.055713,0.78143 1.597824,0.78143 1.203519,0 3.869285,-1.54559 7.858873,-4.55651 2.052183,-1.54876 4.792193,-3.61862 6.088913,-4.59968 2.58704,-1.95729 5.37858,-3.48954 6.35742,-3.48954 0.82301,0 1.60981,0.80049 1.80395,1.83531 0.32563,1.73574 -0.61029,4.70938 -2.30336,7.31832 -1.49123,2.29793 -4.04884,4.72795 -9.08229,8.62924 -7.27212,5.63641 -9.548715,8.31661 -10.164306,11.96626 -1.00477,5.95694 3.808833,10.41134 10.448196,9.66853 3.97915,-0.44518 7.8392,-1.487 17.56794,-4.74157 4.27287,-1.42941 7.8303,-2.53747 7.9054,-2.46236 0.21165,0.21164 -0.86856,2.26759 -2.37611,4.5224 -1.99827,2.98879 -4.41214,5.91373 -7.04502,8.53661 -3.95258,3.93756 -7.24779,6.27767 -13.04377,9.26311 -8.181713,4.21429 -17.291173,7.39973 -24.801275,8.67261 -2.60735,0.44192 -7.330166,0.72284 -8.810094,0.52404 z m -9.474185,-58.16252 c 0.676195,-0.72581 0.942106,-1.91583 1.054933,-4.72116 0.149923,-3.7276 -0.547542,-6.42151 -1.662548,-6.42151 -1.012397,0 -1.765651,2.46883 -1.765651,5.78702 0,2.34596 0.317532,4.10773 0.918455,5.09587 0.484824,0.79723 0.887168,0.86908 1.454811,0.25978 z m 5.962788,-0.32704 c 1.244783,-1.89978 1.244783,-8.37177 0,-10.27155 -0.490664,-0.74884 -1.314758,-0.72693 -1.705524,0.0453 -1.224811,2.42059 -1.079248,8.92872 0.232501,10.39521 0.475556,0.53166 1.057697,0.46487 1.473023,-0.169 z"
       id="path4530"
       inkscape:connector-curvature="0"
       inkscape:export-xdpi="103.85176"
       inkscape:export-ydpi="103.85176" />
    <path
       style="fill:#5b1818;fill-opacity:0;stroke-width:0.21433425"
       d="m 71.385141,243.70283 c -7.336563,-0.98552 -11.076739,-5.55153 -12.526999,-15.29296 -0.184277,-1.23778 -0.579885,-4.90289 -0.879134,-8.1447 -0.627538,-6.79825 -1.124582,-9.54605 -2.110681,-11.66848 -0.881078,-1.89639 -1.812993,-2.83301 -5.595106,-5.62336 -8.636191,-6.37157 -10.889154,-8.47905 -12.594799,-11.78149 -2.359901,-4.56921 -2.654643,-9.72196 -0.604672,-10.57109 0.327255,-0.13555 0.859656,-0.18004 1.183113,-0.0989 1.161278,0.29146 4.028342,2.71965 9.39356,7.95564 5.341611,5.21294 6.620066,6.26557 7.29516,6.00651 0.580978,-0.22294 0.637926,-1.84307 0.365412,-10.39549 -0.423885,-13.30291 0.07272,-16.84887 2.732077,-19.50823 2.138946,-2.13894 5.316744,-2.8132 9.817899,-2.08314 6.284257,1.01926 10.249356,3.66007 12.60158,8.39282 0.769976,1.54922 1.384938,3.18668 3.691943,9.83049 2.47575,7.1298 3.700917,9.73418 5.228356,11.11413 0.639799,0.57802 1.055713,0.78143 1.597824,0.78143 1.203519,0 3.869285,-1.54559 7.858873,-4.55651 2.052183,-1.54876 4.792193,-3.61862 6.088913,-4.59968 2.58704,-1.95729 5.37858,-3.48954 6.35742,-3.48954 0.82301,0 1.60981,0.80049 1.80395,1.83531 0.32563,1.73574 -0.61029,4.70938 -2.30336,7.31832 -1.49123,2.29793 -4.04884,4.72795 -9.08229,8.62924 -7.27212,5.63641 -9.548715,8.31661 -10.164306,11.96626 -1.00477,5.95694 3.808833,10.41134 10.448196,9.66853 3.97915,-0.44518 7.8392,-1.487 17.56794,-4.74157 4.27287,-1.42941 7.8303,-2.53747 7.9054,-2.46236 0.21165,0.21164 -0.86856,2.26759 -2.37611,4.5224 -1.99827,2.98879 -4.41214,5.91373 -7.04502,8.53661 -3.95258,3.93756 -7.24779,6.27767 -13.04377,9.26311 -8.181713,4.21429 -17.291173,7.39973 -24.801275,8.67261 -2.60735,0.44192 -7.330166,0.72284 -8.810094,0.52404 z m -9.474185,-58.16252 c 0.676195,-0.72581 0.942106,-1.91583 1.054933,-4.72116 0.149923,-3.7276 -0.547542,-6.42151 -1.662548,-6.42151 -1.012397,0 -1.765651,2.46883 -1.765651,5.78702 0,2.34596 0.317532,4.10773 0.918455,5.09587 0.484824,0.79723 0.887168,0.86908 1.454811,0.25978 z m 5.962788,-0.32704 c 1.244783,-1.89978 1.244783,-8.37177 0,-10.27155 -0.490664,-0.74884 -1.314758,-0.72693 -1.705524,0.0453 -1.224811,2.42059 -1.079248,8.92872 0.232501,10.39521 0.475556,0.53166 1.057697,0.46487 1.473023,-0.169 z"
       id="path4532"
       inkscape:connector-curvature="0"
       inkscape:export-xdpi="103.85176"
       inkscape:export-ydpi="103.85176" />
    <path
       style="fill:#5b1818;fill-opacity:0;stroke-width:0.21433425"
       d="m 71.385141,243.70283 c -7.336563,-0.98552 -11.076739,-5.55153 -12.526999,-15.29296 -0.184277,-1.23778 -0.579885,-4.90289 -0.879134,-8.1447 -0.627538,-6.79825 -1.124582,-9.54605 -2.110681,-11.66848 -0.881078,-1.89639 -1.812993,-2.83301 -5.595106,-5.62336 -8.636191,-6.37157 -10.889154,-8.47905 -12.594799,-11.78149 -2.359901,-4.56921 -2.654643,-9.72196 -0.604672,-10.57109 0.327255,-0.13555 0.859656,-0.18004 1.183113,-0.0989 1.161278,0.29146 4.028342,2.71965 9.39356,7.95564 5.341611,5.21294 6.620066,6.26557 7.29516,6.00651 0.580978,-0.22294 0.637926,-1.84307 0.365412,-10.39549 -0.423885,-13.30291 0.07272,-16.84887 2.732077,-19.50823 2.138946,-2.13894 5.316744,-2.8132 9.817899,-2.08314 6.284257,1.01926 10.249356,3.66007 12.60158,8.39282 0.769976,1.54922 1.384938,3.18668 3.691943,9.83049 2.47575,7.1298 3.700917,9.73418 5.228356,11.11413 0.639799,0.57802 1.055713,0.78143 1.597824,0.78143 1.203519,0 3.869285,-1.54559 7.858873,-4.55651 2.052183,-1.54876 4.792193,-3.61862 6.088913,-4.59968 2.58704,-1.95729 5.37858,-3.48954 6.35742,-3.48954 0.82301,0 1.60981,0.80049 1.80395,1.83531 0.32563,1.73574 -0.61029,4.70938 -2.30336,7.31832 -1.49123,2.29793 -4.04884,4.72795 -9.08229,8.62924 -7.27212,5.63641 -9.548715,8.31661 -10.164306,11.96626 -1.00477,5.95694 3.808833,10.41134 10.448196,9.66853 3.97915,-0.44518 7.8392,-1.487 17.56794,-4.74157 4.27287,-1.42941 7.8303,-2.53747 7.9054,-2.46236 0.21165,0.21164 -0.86856,2.26759 -2.37611,4.5224 -1.99827,2.98879 -4.41214,5.91373 -7.04502,8.53661 -3.95258,3.93756 -7.24779,6.27767 -13.04377,9.26311 -8.181713,4.21429 -17.291173,7.39973 -24.801275,8.67261 -2.60735,0.44192 -7.330166,0.72284 -8.810094,0.52404 z m -9.474185,-58.16252 c 0.676195,-0.72581 0.942106,-1.91583 1.054933,-4.72116 0.149923,-3.7276 -0.547542,-6.42151 -1.662548,-6.42151 -1.012397,0 -1.765651,2.46883 -1.765651,5.78702 0,2.34596 0.317532,4.10773 0.918455,5.09587 0.484824,0.79723 0.887168,0.86908 1.454811,0.25978 z m 5.962788,-0.32704 c 1.244783,-1.89978 1.244783,-8.37177 0,-10.27155 -0.490664,-0.74884 -1.314758,-0.72693 -1.705524,0.0453 -1.224811,2.42059 -1.079248,8.92872 0.232501,10.39521 0.475556,0.53166 1.057697,0.46487 1.473023,-0.169 z"
       id="path4534"
       inkscape:connector-curvature="0"
       inkscape:export-xdpi="103.85176"
       inkscape:export-ydpi="103.85176" />
    <path
       style="fill:#890000;fill-opacity:0.81592042;stroke-width:0.11984282"
       d="m 71.553254,243.83645 c -6.433779,-0.61813 -10.483667,-4.60621 -12.21413,-12.02769 -0.56553,-2.42539 -0.886963,-4.91334 -1.441299,-11.1558 -0.682565,-7.68645 -1.168223,-10.25549 -2.378126,-12.57974 -0.814665,-1.565 -1.932854,-2.56812 -6.789097,-6.09044 -7.348378,-5.32991 -9.723151,-7.64537 -11.425381,-11.14003 -1.140876,-2.34219 -1.722257,-4.60787 -1.729983,-6.74185 -0.01127,-3.11106 1.294212,-4.44765 3.339073,-3.41866 1.681295,0.84605 3.711444,2.62963 9.728955,8.54736 4.936401,4.85455 5.845838,5.58263 6.347112,5.08135 0.433988,-0.43399 0.478075,-2.38875 0.211344,-9.37115 -0.414292,-10.8453 -0.129786,-15.37376 1.136927,-18.09627 1.081026,-2.32343 2.755027,-3.7452 5.219458,-4.43304 1.115229,-0.31127 4.105655,-0.377 5.808054,-0.12766 5.876509,0.86067 9.662199,2.9697 12.237183,6.81738 1.236326,1.84739 1.830371,3.28764 4.061658,9.84745 2.748398,8.08007 4.210088,11.35083 5.704068,12.76377 0.789958,0.74711 1.314602,0.9012 2.244092,0.6591 1.869249,-0.48688 3.307877,-1.45445 11.890158,-7.99694 4.76512,-3.63257 6.70771,-4.69985 8.12004,-4.46124 1.98735,0.33576 2.18715,3.55434 0.44748,7.20837 -1.02749,2.15816 -2.49766,4.12155 -4.47654,5.97835 -1.1698,1.09763 -3.58489,3.06184 -7.39121,6.01128 -6.083921,4.71433 -8.209452,7.43457 -8.610561,11.01975 -0.446466,3.99063 1.745585,7.46216 5.502168,8.71372 2.61335,0.87068 5.344643,0.68066 10.958103,-0.76236 3.73835,-0.961 7.49195,-2.14967 16.05894,-5.08544 1.84557,-0.63246 3.44975,-1.15028 3.56483,-1.15071 0.19713,-8.9e-4 0.19631,0.0332 -0.0143,0.58746 -0.50448,1.32769 -2.29382,4.24608 -4.08478,6.66223 -2.71902,3.66817 -6.41322,7.49501 -9.87565,10.23024 -6.13921,4.8498 -18.748803,10.55963 -28.718797,13.00433 -5.19649,1.2742 -10.111501,1.82569 -13.429802,1.50688 z m -9.780113,-58.30979 c 0.345971,-0.34597 0.687086,-1.17257 0.934563,-2.26466 0.258073,-1.13883 0.22272,-5.14399 -0.05589,-6.33225 -0.394257,-1.68146 -0.798206,-2.35635 -1.410363,-2.35635 -0.941482,0 -1.60811,2.38865 -1.588677,5.69253 0.01574,2.67747 0.488137,4.76584 1.205708,5.33027 0.402214,0.31639 0.539142,0.30598 0.914661,-0.0696 z m 5.590185,0.0738 c 1.22502,-0.65562 1.798967,-5.86953 1.002776,-9.10957 -0.567277,-2.3085 -1.619312,-2.70728 -2.314623,-0.87736 -0.612796,1.61274 -0.81142,5.05189 -0.420779,7.28571 0.209141,1.19594 0.685508,2.38254 1.06249,2.64659 0.292142,0.20462 0.37695,0.21154 0.670136,0.0546 z"
       id="path4586"
       inkscape:connector-curvature="0"
       inkscape:export-xdpi="103.85176"
       inkscape:export-ydpi="103.85176" />
    <path
       style="fill:#ffffff;fill-opacity:1;stroke-width:0.02118542"
       d="m 61.236473,174.80996 c -0.271194,0.0286 -0.430234,0.29397 -0.559926,0.50613 -0.375091,0.70737 -0.517823,1.50956 -0.633789,2.28763 -0.142598,1.057 -0.167096,2.11071 -0.144408,3.18381 0.03098,1.10431 0.137306,2.22222 0.428928,3.29105 0.144163,0.47152 0.298825,0.98752 0.681535,1.33091 0.107303,0.0847 0.262692,0.24413 0.401114,0.12062 0.443969,-0.34295 0.640917,-0.89746 0.820135,-1.40857 0.266686,-0.77738 0.375751,-1.59844 0.393271,-2.41763 0.02849,-1.16318 0.02858,-2.35557 -0.04827,-3.5173 -0.0362,-0.59729 -0.12173,-1.19242 -0.297376,-1.76567 -0.146896,-0.49086 -0.285554,-1.01291 -0.624993,-1.41071 -0.10593,-0.11727 -0.254195,-0.20461 -0.416218,-0.20027 z"
       id="path4626"
       inkscape:connector-curvature="0"
       inkscape:export-xdpi="103.85176"
       inkscape:export-ydpi="103.85176" />
    <path
       style="fill:#ffffff;fill-opacity:1;stroke-width:0.02118542"
       d="m 67.056212,174.70411 c -0.242242,0.0175 -0.389936,0.25773 -0.516387,0.43693 -0.377151,0.64272 -0.522964,1.37489 -0.649932,2.10055 -0.182575,1.13962 -0.240147,2.29525 -0.210456,3.45657 0.0071,1.14656 0.13473,2.31012 0.499112,3.40706 0.161805,0.43859 0.312267,0.91174 0.656873,1.24494 0.09054,0.077 0.2203,0.17097 0.33611,0.0808 0.375122,-0.17571 0.52961,-0.60516 0.679591,-0.95186 0.355324,-0.95607 0.493032,-1.96207 0.582641,-2.96811 0.10963,-1.4334 0.08429,-2.86759 -0.153098,-4.27606 -0.13518,-0.72053 -0.307782,-1.48818 -0.708141,-2.13158 -0.122881,-0.17525 -0.281573,-0.39138 -0.516313,-0.39929 z"
       id="path4628"
       inkscape:connector-curvature="0"
       inkscape:export-xdpi="103.85176"
       inkscape:export-ydpi="103.85176" />
    <path
       style="fill:#421212;fill-opacity:0;stroke-width:0.12314023"
       d="m 64.293816,162.19504 c -2.929305,-0.0395 -6.045081,1.23677 -7.461552,3.92979 -1.991283,3.57413 -1.570977,7.80923 -1.662873,11.74486 -0.06102,5.02565 0.375336,10.04666 0.239086,15.07049 -0.08171,0.52111 -0.0013,1.67474 -0.803296,1.59529 -1.64287,-0.74908 -2.818739,-2.2317 -4.154816,-3.40845 -3.424427,-3.26467 -6.662566,-6.75409 -10.397861,-9.67231 -0.899704,-0.64449 -2.210659,-1.42484 -3.27548,-0.74269 -1.336548,1.12709 -1.067882,3.0844 -1.031542,4.64493 0.475245,4.32894 2.853674,8.26873 6.093574,11.11323 3.733836,3.36931 8.074294,5.98005 11.885862,9.25085 2.674963,2.27918 3.257109,5.9685 3.677932,9.26223 0.777881,5.83118 0.803368,11.78184 2.221497,17.51452 0.853068,3.41973 2.520782,6.81481 5.453525,8.90819 2.596597,1.90951 5.902241,2.52712 9.069055,2.35926 5.964749,-0.0362 11.792919,-1.62517 17.41814,-3.48365 7.69099,-2.69134 15.270813,-6.01684 21.861943,-10.87025 2.91911,-2.24467 5.48307,-4.92272 7.92286,-7.66985 2.31085,-2.85307 4.59747,-5.8037 6.1399,-9.15538 0.24225,-0.40355 0.24878,-0.8581 -0.33048,-0.4843 -7.42741,2.37165 -14.72869,5.23236 -22.37278,6.85584 -3.38826,0.67606 -7.280043,0.9053 -10.19154,-1.29345 -3.481933,-2.49613 -4.003769,-7.71038 -1.8697,-11.24265 2.386787,-3.84021 6.227737,-6.41766 9.71327,-9.16995 3.42273,-2.77595 7.15898,-5.49262 9.21864,-9.50751 1.08376,-2.08649 2.00593,-4.65099 1.09785,-6.95726 -0.75862,-1.19503 -2.47878,-0.74807 -3.52505,-0.2185 -3.43319,1.94147 -6.43781,4.53927 -9.599223,6.8792 -2.49348,1.80879 -4.90243,3.88708 -7.827848,4.96113 -1.049386,0.44765 -2.177335,-0.0521 -2.802885,-0.94158 -2.135063,-2.72557 -3.093766,-6.12985 -4.323342,-9.31385 -1.391153,-3.77348 -2.452564,-7.68271 -4.164191,-11.32946 -1.912967,-3.91061 -5.657748,-6.75071 -9.864684,-7.77218 -2.066804,-0.56112 -4.208768,-0.89368 -6.353991,-0.85654 z m 2.844489,12.16034 c 0.959354,0.31276 1.13851,1.53977 1.382442,2.39234 0.456301,2.64543 0.451419,5.46393 -0.435562,8.02047 -0.150462,0.64558 -0.977574,1.44039 -1.552721,0.73499 -1.162811,-1.45584 -1.071682,-3.48215 -1.172476,-5.24909 0.05528,-1.87804 -0.0066,-3.97781 1.110664,-5.58292 0.168514,-0.18696 0.407025,-0.3359 0.667653,-0.31579 z m -5.786388,0.12314 c 1.049101,0.30428 1.180265,1.66862 1.413181,2.56928 0.375211,2.61241 0.458882,5.39981 -0.505983,7.89812 -0.177822,0.67502 -1.138679,1.41496 -1.61694,0.57145 -1.243718,-2.08415 -1.094909,-4.64665 -1.012144,-6.98591 0.175264,-1.34976 0.201883,-2.99393 1.30364,-3.94928 0.125091,-0.0748 0.27225,-0.11463 0.418246,-0.10366 z"
       id="path4632"
       inkscape:connector-curvature="0"
       inkscape:export-xdpi="103.85176"
       inkscape:export-ydpi="103.85176" />
    <path
       style="fill:#561212;fill-opacity:1;stroke-width:0.12314023"
       d="m 64.291409,162.01683 c -2.875286,-0.0289 -5.93303,1.15466 -7.439404,3.72523 -2.074423,3.38665 -1.796832,7.51548 -1.860356,11.32457 -0.07487,5.16013 0.328339,10.31416 0.259291,15.47275 -0.09839,0.58407 0.07522,1.43144 -0.453354,1.82412 -1.023472,-0.20337 -1.72021,-1.13369 -2.516748,-1.75265 -4.025003,-3.7037 -7.703375,-7.79759 -11.993839,-11.20593 -0.964245,-0.71573 -2.29779,-1.5192 -3.500118,-0.92596 -1.442094,1.0288 -1.270457,3.01477 -1.244072,4.57474 0.369203,4.32267 2.644155,8.32736 5.825813,11.21912 3.747858,3.48795 8.18573,6.14138 12.079953,9.43811 2.239629,1.80356 3.091653,4.71204 3.512623,7.43411 1.000896,6.28001 0.946074,12.71686 2.370962,18.93629 0.714829,2.91558 1.866419,5.81203 3.973645,8.0105 2.568533,2.75759 6.433676,4.01622 10.14536,3.85704 5.914818,0.0792 11.713444,-1.41562 17.305773,-3.20841 7.727159,-2.62042 15.322392,-5.90707 22.016852,-10.62516 3.17894,-2.27592 5.89123,-5.12989 8.50687,-8.01573 2.37629,-2.89187 4.69945,-5.89972 6.31205,-9.29557 0.12736,-0.28449 0.50623,-1.0708 -0.0972,-0.98681 -7.47266,2.34795 -14.80332,5.24673 -22.46591,6.90996 -3.23899,0.65126 -6.902803,1.00634 -9.834353,-0.86671 -2.64293,-1.58574 -3.906428,-4.83908 -3.490737,-7.82878 0.353175,-3.57033 3.090713,-6.27318 5.665447,-8.52555 4.192493,-3.60358 8.978503,-6.57968 12.587363,-10.82257 1.88935,-2.5282 3.64249,-5.58214 3.28038,-8.85581 -0.037,-0.98501 -0.72481,-2.01635 -1.80742,-1.96134 -2.1309,-0.0601 -3.81653,1.51353 -5.4945,2.60552 -4.21023,2.95809 -8.051973,6.44245 -12.510775,9.03416 -1.064634,0.52267 -2.497515,1.36793 -3.613052,0.51056 -1.990976,-1.80845 -2.83651,-4.45452 -3.839665,-6.8722 -1.811446,-4.57971 -3.105175,-9.3724 -5.054538,-13.90467 -1.744653,-3.84268 -5.171015,-6.84109 -9.21123,-8.06056 -2.392507,-0.75379 -4.901359,-1.20273 -7.415111,-1.16237 z m 2.833669,12.51653 c 0.80137,0.3062 0.951837,1.35032 1.183109,2.07923 0.503227,2.58412 0.47004,5.36292 -0.302852,7.8706 -0.162437,0.46334 -0.592506,1.43193 -1.210954,1.00917 -1.063863,-1.0387 -1.066078,-2.68098 -1.21601,-4.05473 -0.05945,-2.15025 -0.148372,-4.45021 0.844663,-6.40955 0.15666,-0.2406 0.38547,-0.51009 0.702044,-0.49472 z m -5.78711,0.12314 c 0.834227,0.2719 0.968471,1.34835 1.184504,2.08136 0.453608,2.58435 0.516276,5.38588 -0.321562,7.89011 -0.173783,0.4689 -0.655514,1.42015 -1.253771,0.96708 -1.156503,-1.4887 -1.121167,-3.4924 -1.197518,-5.30368 0.05395,-1.78738 0.0169,-3.728 0.990441,-5.29528 0.143811,-0.18304 0.349742,-0.35792 0.597906,-0.33959 z"
       id="path4636"
       inkscape:connector-curvature="0"
       inkscape:export-xdpi="103.85176"
       inkscape:export-ydpi="103.85176" />
    <path
       style="fill:#000000;fill-opacity:1;stroke-width:0.11490618"
       d="m 64.265953,162.01975 c -3.076446,-0.10903 -6.398938,1.35437 -7.741578,4.2531 -1.799644,3.1982 -1.469179,6.977 -1.497284,10.50561 -0.0047,5.63493 0.156089,11.27288 0.01248,16.90602 0.0861,0.48367 -0.433787,0.77505 -0.78796,0.41026 -2.103063,-1.50071 -3.843258,-3.45155 -5.738998,-5.19796 -2.841814,-2.68387 -5.563066,-5.52854 -8.688908,-7.88721 -0.960344,-0.64926 -2.543965,-1.21464 -3.464694,-0.21679 -1.167235,1.41013 -0.830596,3.40064 -0.738809,5.08706 0.596581,4.56529 3.368821,8.57972 6.86967,11.45622 3.613774,3.12449 7.721346,5.62903 11.292237,8.8025 2.597142,2.43507 3.049938,6.17453 3.456611,9.52061 0.749616,5.97676 0.825485,12.08456 2.459487,17.91706 1.07458,3.92974 3.635026,7.62188 7.467107,9.26319 2.560304,1.20723 5.442994,1.26434 8.214445,1.1044 6.520043,-0.27811 12.837638,-2.21125 18.935678,-4.41329 7.175403,-2.69439 14.239653,-5.99024 20.283693,-10.76533 3.41876,-3.08287 6.76382,-6.30459 9.4259,-10.08215 1.44816,-2.06016 2.97663,-4.13872 3.84935,-6.51865 0.16973,-0.60526 -0.60531,-0.34317 -0.88761,-0.20804 -7.05913,2.16771 -13.97645,4.83121 -21.17033,6.53787 -2.73683,0.58041 -5.65366,1.03206 -8.400953,0.28065 -2.979854,-0.80212 -5.36929,-3.46993 -5.633547,-6.57479 -0.383286,-2.89216 0.826715,-5.77334 2.785801,-7.86546 4.542276,-4.96075 10.672419,-8.17018 15.090489,-13.26504 1.64649,-2.01793 3.13115,-4.35374 3.5214,-6.97349 0.0899,-1.30753 0.44494,-2.90065 -0.67058,-3.89245 -1.22852,-0.85053 -2.85083,-0.15111 -4.00966,0.51159 -5.26486,3.26673 -9.792943,7.60462 -15.152973,10.72858 -1.059048,0.53337 -2.501969,1.41294 -3.558502,0.39251 -2.361555,-2.19867 -3.169524,-5.45308 -4.352254,-8.34153 -1.69959,-4.42265 -2.918681,-9.04157 -4.999122,-13.31025 -2.140765,-3.92264 -6.140816,-6.64305 -10.481162,-7.55525 -1.863164,-0.44846 -3.773478,-0.65491 -5.689427,-0.60955 z m 3.081372,12.78848 c 0.987891,1.06429 0.995854,2.63747 1.16118,4.00241 0.133,2.01228 -0.03076,4.09256 -0.750254,5.98477 -0.137846,0.31504 -0.362185,0.68518 -0.674848,0.69034 -0.322124,-0.17359 -0.638434,-0.56181 -0.734102,-0.83554 -0.189387,-0.02 -0.01681,-0.25139 -0.234748,-0.2821 0.11646,-0.29186 -0.235663,-0.32102 -0.09516,-0.62323 -0.463051,-1.57934 -0.275371,-3.29481 -0.307916,-4.93155 -0.037,-1.19917 0.217562,-2.39929 0.644778,-3.49498 -0.06702,-0.13483 0.229769,-0.0752 0.172584,-0.26841 0.240522,-0.24428 0.536213,-0.72239 0.818481,-0.24171 z m -6.020904,-0.0404 c 0.312276,0.0387 0.512068,0.38768 0.578124,0.57206 0.185299,0.0249 0.02661,0.25769 0.232056,0.29669 -0.07578,0.19882 0.168438,0.32088 0.110642,0.53009 0.201821,0.17366 0.0027,0.48485 0.202432,0.7065 0.29574,2.002 0.357392,4.06703 0.08708,6.07656 -0.230749,0.89635 -0.358903,2.00553 -1.143899,2.59414 -0.240384,0.17866 -0.283102,-0.0671 -0.454915,-0.15418 -1.345778,-2.02662 -1.024742,-4.57122 -1.033029,-6.87664 0.122496,-1.28662 0.199618,-2.85512 1.287978,-3.72121 0.04182,-0.0176 0.08797,-0.0286 0.133535,-0.024 z"
       id="path4721"
       inkscape:connector-curvature="0"
       inkscape:export-xdpi="103.85176"
       inkscape:export-ydpi="103.85176" />
    <path
       style="fill:#000000;fill-opacity:0;stroke-width:0.11490618"
       d="m 61.254832,174.89149 c -0.844874,0.46536 -0.981913,1.61795 -1.137034,2.49686 -0.166213,2.28091 -0.287034,4.64141 0.302838,6.87293 0.188905,0.43098 0.436765,1.31301 1.030791,1.1742 1.246063,-1.49394 1.094816,-3.61659 1.098721,-5.44655 -0.08276,-1.69307 0.118221,-3.67132 -1.06775,-5.03932 -0.06689,-0.0429 -0.147694,-0.0683 -0.227566,-0.0581 z"
       id="path4775"
       inkscape:connector-curvature="0"
       inkscape:export-xdpi="103.85176"
       inkscape:export-ydpi="103.85176" />
    <path
       style="fill:#000000;fill-opacity:0;stroke-width:0.11490618"
       d="m 67.001484,174.77793 c -0.667702,0.32591 -0.721525,1.27864 -0.947304,1.91413 -0.357878,2.12603 -0.352617,4.32666 -0.08483,6.4628 0.257083,0.75598 0.339185,1.80975 1.100361,2.23439 0.934353,-0.58589 1.011702,-1.89866 1.201499,-2.89367 0.219394,-2.36634 0.2813,-4.86827 -0.583095,-7.11911 -0.137093,-0.2633 -0.34096,-0.62248 -0.686631,-0.59854 z"
       id="path4777"
       inkscape:connector-curvature="0"
       inkscape:export-xdpi="103.85176"
       inkscape:export-ydpi="103.85176" />
    <rect
       style="fill:#000000;fill-opacity:0;stroke-width:0.44581524"
       id="rect4779"
       width="201.95"
       height="170.42609"
       x="3.469447e-18"
       y="126.57391" />
    <path
       style="fill:#000000;fill-opacity:1;stroke-width:1.11111116"
       d="M 109.67577,3.5099932 C 95.492957,2.972107 81.762526,12.949185 79.421864,27.20791 c -4.104283,25.906963 -0.874064,52.317147 -1.50539,78.41796 -0.947279,5.96893 1.856444,13.58036 -2.25763,18.55252 -6.343633,2.70452 -10.824557,-5.47562 -15.380054,-8.54932 C 44.50698,101.66384 30.766615,85.064158 13.085058,73.425358 6.4702146,69.396295 2.7790132,79.285499 3.8337567,84.460514 3.6376907,104.66975 15.732325,122.68843 31.372353,134.56603 c 14.663907,12.9057 32.338762,22.70032 45.391091,37.42053 9.785714,15.68035 8.799079,35.18079 11.274678,52.8697 2.548736,23.85802 3.153584,50.37799 19.610738,69.63247 13.16389,15.33792 35.25016,16.08324 53.79341,13.4375 42.31068,-6.11027 83.24821,-21.82632 120.1888,-43.8303 22.51453,-14.67389 42.09411,-34.40057 57.1658,-56.75347 3.19931,-5.00712 6.09272,-10.187 8.73263,-15.37327 -30.10444,10.21968 -60.12995,21.61867 -91.55476,27.07295 -16.54853,3.49445 -24.34308,-10.2789 -30.30938,-27.17494 -5.92789,-15.71038 -10.20596,-26.24707 1.88802,-36.64063 19.48792,-19.49538 45.83154,-32.48498 60.19908,-56.753037 3.43439,-7.767118 8.23556,-17.64971 3.85908,-25.868487 -5.90997,-4.371405 -13.21607,1.716788 -18.24003,4.908853 -19.4772,12.804284 -36.60736,29.374111 -57.56726,39.796001 -9.12594,4.3669 -15.637,-5.56996 -18.88238,-12.66492 C 184.32046,79.773576 179.74025,51.410661 165.37889,27.409733 153.23895,9.895065 129.81075,3.9385009 109.67577,3.5099932 Z m 11.4757,42.8602428 c 8.15408,3.60209 7.17509,14.783292 7.74088,22.230903 -0.46831,8.002268 0.80914,18.836541 -6.63411,23.993056 -7.17048,1.328238 -8.68109,-8.501995 -9.28603,-13.643664 -0.47484,-10.289118 -1.62684,-22.22611 4.51389,-31.113281 0.95831,-0.934309 2.2825,-1.663657 3.66537,-1.467014 z m -21.744797,1.052518 c 7.573527,2.006644 6.662517,12.22684 7.300347,18.359374 -0.546,8.74132 2.01137,20.494066 -6.0026,26.516928 -6.892312,2.059189 -8.983707,-7.5884 -9.377174,-12.604167 -0.261006,-9.95336 -2.499233,-21.569773 3.582899,-30.232205 1.127212,-1.263363 2.758313,-2.187425 4.496528,-2.03993 z M 392.55338,111.12501 c -24.59436,0.15173 -49.29131,20.09103 -49.48134,45.70096 -0.88704,10.97991 4.50337,20.72908 9.62891,29.92621 6.75525,6.01592 15.19769,12.39666 24.45529,15.14757 24.91651,8.66293 55.85734,-4.20407 64.82856,-29.58767 8.42199,-21.65689 -4.7558,-46.6196 -25.1237,-55.91798 -7.52829,-3.66656 -15.93993,-5.46735 -24.30772,-5.26909 z"
       id="path4550"
       inkscape:connector-curvature="0"
       transform="matrix(0.26458333,0,0,0.26458333,35.125964,161.64767)"
       sodipodi:nodetypes="cccccccccccccccccccccccccccccccccccccccccccc" />
  </g>
</svg>
