<svg xmlns="http://www.w3.org/2000/svg" width="448.015" height="312.58" viewBox="0 0 118.537 82.703"><g transform="translate(-35.126 -161.648)"><path fill="none" d="M32.509 138.395h123.633v123.633H32.509z"/><path d="M54.509 206.878c-2.704-3.222-12.516-8.28-16.308-14.043-3.792-5.762-3.792-13.375-.064-12.678 3.728.697 15.436 14.841 16.69 14.081 1.253-.76-1.294-20.461.973-26.698 2.267-6.237 8.422-6.165 13.333-5.161 4.91 1.003 9.146 3.24 11.72 8.444 2.573 5.206 6.256 20.989 9.814 21.47 3.559.48 15.417-11.465 19.743-12.506 4.326-1.04 4.031 5.657-.582 11.247-4.614 5.59-13.54 9.95-16.754 15.344-3.213 5.394-.642 11.996 6.241 12.78 6.883.785 27.793-7.846 28.669-7.54.875.305-6.456 13.43-17.826 20.422-11.37 6.99-29.956 13.54-39.957 11.804-10.002-1.736-11.413-11.758-12.155-19.377-.741-7.618-.834-14.366-3.537-17.589z" fill="none" stroke="#000" stroke-width=".447"/><ellipse cx="139.303" cy="203.418" rx="14.36" ry="13.289"/><ellipse cx="61.285" cy="180.163" rx="1.715" ry="5.68"/><ellipse cx="67.072" cy="180.056" rx="1.715" ry="5.68"/><path d="M71.385 243.703c-7.336-.986-11.077-5.552-12.527-15.293-.184-1.238-.58-4.903-.879-8.145-.628-6.798-1.125-9.546-2.11-11.668-.882-1.897-1.814-2.833-5.596-5.624-8.636-6.371-10.889-8.479-12.595-11.781-2.36-4.57-2.654-9.722-.604-10.571.327-.136.86-.18 1.183-.1 1.161.292 4.028 2.72 9.393 7.956 5.342 5.213 6.62 6.266 7.296 6.007.58-.223.638-1.843.365-10.395-.424-13.303.073-16.85 2.732-19.509 2.139-2.139 5.317-2.813 9.818-2.083 6.284 1.02 10.25 3.66 12.602 8.393.77 1.55 1.384 3.187 3.691 9.83 2.476 7.13 3.701 9.735 5.229 11.115.64.578 1.056.781 1.598.781 1.203 0 3.869-1.546 7.859-4.556l6.088-4.6c2.588-1.957 5.379-3.49 6.358-3.49.823 0 1.61.8 1.804 1.836.325 1.735-.61 4.709-2.304 7.318-1.49 2.298-4.048 4.728-9.082 8.63-7.272 5.636-9.549 8.316-10.164 11.965-1.005 5.957 3.809 10.412 10.448 9.669 3.98-.445 7.84-1.487 17.568-4.742 4.273-1.429 7.83-2.537 7.905-2.462.212.212-.868 2.268-2.376 4.522a56.662 56.662 0 01-7.045 8.537c-3.952 3.938-7.248 6.278-13.043 9.263-8.182 4.214-17.292 7.4-24.802 8.673-2.607.442-7.33.723-8.81.524zm-9.474-58.163c.676-.725.942-1.916 1.055-4.72.15-3.728-.548-6.422-1.663-6.422-1.012 0-1.765 2.468-1.765 5.787 0 2.346.317 4.107.918 5.096.485.797.887.869 1.455.26zm5.963-.327c1.245-1.9 1.245-8.371 0-10.271-.49-.75-1.315-.727-1.706.045-1.225 2.42-1.079 8.929.233 10.395.475.532 1.057.465 1.473-.169z" fill="none"/><path d="M71.385 243.703c-7.336-.986-11.077-5.552-12.527-15.293-.184-1.238-.58-4.903-.879-8.145-.628-6.798-1.125-9.546-2.11-11.668-.882-1.897-1.814-2.833-5.596-5.624-8.636-6.371-10.889-8.479-12.595-11.781-2.36-4.57-2.654-9.722-.604-10.571.327-.136.86-.18 1.183-.1 1.161.292 4.028 2.72 9.393 7.956 5.342 5.213 6.62 6.266 7.296 6.007.58-.223.638-1.843.365-10.395-.424-13.303.073-16.85 2.732-19.509 2.139-2.139 5.317-2.813 9.818-2.083 6.284 1.02 10.25 3.66 12.602 8.393.77 1.55 1.384 3.187 3.691 9.83 2.476 7.13 3.701 9.735 5.229 11.115.64.578 1.056.781 1.598.781 1.203 0 3.869-1.546 7.859-4.556l6.088-4.6c2.588-1.957 5.379-3.49 6.358-3.49.823 0 1.61.8 1.804 1.836.325 1.735-.61 4.709-2.304 7.318-1.49 2.298-4.048 4.728-9.082 8.63-7.272 5.636-9.549 8.316-10.164 11.965-1.005 5.957 3.809 10.412 10.448 9.669 3.98-.445 7.84-1.487 17.568-4.742 4.273-1.429 7.83-2.537 7.905-2.462.212.212-.868 2.268-2.376 4.522a56.662 56.662 0 01-7.045 8.537c-3.952 3.938-7.248 6.278-13.043 9.263-8.182 4.214-17.292 7.4-24.802 8.673-2.607.442-7.33.723-8.81.524zm-9.474-58.163c.676-.725.942-1.916 1.055-4.72.15-3.728-.548-6.422-1.663-6.422-1.012 0-1.765 2.468-1.765 5.787 0 2.346.317 4.107.918 5.096.485.797.887.869 1.455.26zm5.963-.327c1.245-1.9 1.245-8.371 0-10.271-.49-.75-1.315-.727-1.706.045-1.225 2.42-1.079 8.929.233 10.395.475.532 1.057.465 1.473-.169z" fill="none"/><path d="M71.385 243.703c-7.336-.986-11.077-5.552-12.527-15.293-.184-1.238-.58-4.903-.879-8.145-.628-6.798-1.125-9.546-2.11-11.668-.882-1.897-1.814-2.833-5.596-5.624-8.636-6.371-10.889-8.479-12.595-11.781-2.36-4.57-2.654-9.722-.604-10.571.327-.136.86-.18 1.183-.1 1.161.292 4.028 2.72 9.393 7.956 5.342 5.213 6.62 6.266 7.296 6.007.58-.223.638-1.843.365-10.395-.424-13.303.073-16.85 2.732-19.509 2.139-2.139 5.317-2.813 9.818-2.083 6.284 1.02 10.25 3.66 12.602 8.393.77 1.55 1.384 3.187 3.691 9.83 2.476 7.13 3.701 9.735 5.229 11.115.64.578 1.056.781 1.598.781 1.203 0 3.869-1.546 7.859-4.556l6.088-4.6c2.588-1.957 5.379-3.49 6.358-3.49.823 0 1.61.8 1.804 1.836.325 1.735-.61 4.709-2.304 7.318-1.49 2.298-4.048 4.728-9.082 8.63-7.272 5.636-9.549 8.316-10.164 11.965-1.005 5.957 3.809 10.412 10.448 9.669 3.98-.445 7.84-1.487 17.568-4.742 4.273-1.429 7.83-2.537 7.905-2.462.212.212-.868 2.268-2.376 4.522a56.662 56.662 0 01-7.045 8.537c-3.952 3.938-7.248 6.278-13.043 9.263-8.182 4.214-17.292 7.4-24.802 8.673-2.607.442-7.33.723-8.81.524zm-9.474-58.163c.676-.725.942-1.916 1.055-4.72.15-3.728-.548-6.422-1.663-6.422-1.012 0-1.765 2.468-1.765 5.787 0 2.346.317 4.107.918 5.096.485.797.887.869 1.455.26zm5.963-.327c1.245-1.9 1.245-8.371 0-10.271-.49-.75-1.315-.727-1.706.045-1.225 2.42-1.079 8.929.233 10.395.475.532 1.057.465 1.473-.169z" fill="none"/><path d="M71.385 243.703c-7.336-.986-11.077-5.552-12.527-15.293-.184-1.238-.58-4.903-.879-8.145-.628-6.798-1.125-9.546-2.11-11.668-.882-1.897-1.814-2.833-5.596-5.624-8.636-6.371-10.889-8.479-12.595-11.781-2.36-4.57-2.654-9.722-.604-10.571.327-.136.86-.18 1.183-.1 1.161.292 4.028 2.72 9.393 7.956 5.342 5.213 6.62 6.266 7.296 6.007.58-.223.638-1.843.365-10.395-.424-13.303.073-16.85 2.732-19.509 2.139-2.139 5.317-2.813 9.818-2.083 6.284 1.02 10.25 3.66 12.602 8.393.77 1.55 1.384 3.187 3.691 9.83 2.476 7.13 3.701 9.735 5.229 11.115.64.578 1.056.781 1.598.781 1.203 0 3.869-1.546 7.859-4.556l6.088-4.6c2.588-1.957 5.379-3.49 6.358-3.49.823 0 1.61.8 1.804 1.836.325 1.735-.61 4.709-2.304 7.318-1.49 2.298-4.048 4.728-9.082 8.63-7.272 5.636-9.549 8.316-10.164 11.965-1.005 5.957 3.809 10.412 10.448 9.669 3.98-.445 7.84-1.487 17.568-4.742 4.273-1.429 7.83-2.537 7.905-2.462.212.212-.868 2.268-2.376 4.522a56.662 56.662 0 01-7.045 8.537c-3.952 3.938-7.248 6.278-13.043 9.263-8.182 4.214-17.292 7.4-24.802 8.673-2.607.442-7.33.723-8.81.524zm-9.474-58.163c.676-.725.942-1.916 1.055-4.72.15-3.728-.548-6.422-1.663-6.422-1.012 0-1.765 2.468-1.765 5.787 0 2.346.317 4.107.918 5.096.485.797.887.869 1.455.26zm5.963-.327c1.245-1.9 1.245-8.371 0-10.271-.49-.75-1.315-.727-1.706.045-1.225 2.42-1.079 8.929.233 10.395.475.532 1.057.465 1.473-.169z" fill="none"/><path d="M71.385 243.703c-7.336-.986-11.077-5.552-12.527-15.293-.184-1.238-.58-4.903-.879-8.145-.628-6.798-1.125-9.546-2.11-11.668-.882-1.897-1.814-2.833-5.596-5.624-8.636-6.371-10.889-8.479-12.595-11.781-2.36-4.57-2.654-9.722-.604-10.571.327-.136.86-.18 1.183-.1 1.161.292 4.028 2.72 9.393 7.956 5.342 5.213 6.62 6.266 7.296 6.007.58-.223.638-1.843.365-10.395-.424-13.303.073-16.85 2.732-19.509 2.139-2.139 5.317-2.813 9.818-2.083 6.284 1.02 10.25 3.66 12.602 8.393.77 1.55 1.384 3.187 3.691 9.83 2.476 7.13 3.701 9.735 5.229 11.115.64.578 1.056.781 1.598.781 1.203 0 3.869-1.546 7.859-4.556l6.088-4.6c2.588-1.957 5.379-3.49 6.358-3.49.823 0 1.61.8 1.804 1.836.325 1.735-.61 4.709-2.304 7.318-1.49 2.298-4.048 4.728-9.082 8.63-7.272 5.636-9.549 8.316-10.164 11.965-1.005 5.957 3.809 10.412 10.448 9.669 3.98-.445 7.84-1.487 17.568-4.742 4.273-1.429 7.83-2.537 7.905-2.462.212.212-.868 2.268-2.376 4.522a56.662 56.662 0 01-7.045 8.537c-3.952 3.938-7.248 6.278-13.043 9.263-8.182 4.214-17.292 7.4-24.802 8.673-2.607.442-7.33.723-8.81.524zm-9.474-58.163c.676-.725.942-1.916 1.055-4.72.15-3.728-.548-6.422-1.663-6.422-1.012 0-1.765 2.468-1.765 5.787 0 2.346.317 4.107.918 5.096.485.797.887.869 1.455.26zm5.963-.327c1.245-1.9 1.245-8.371 0-10.271-.49-.75-1.315-.727-1.706.045-1.225 2.42-1.079 8.929.233 10.395.475.532 1.057.465 1.473-.169z" fill="none"/><path d="M71.553 243.836c-6.434-.618-10.483-4.606-12.214-12.027-.565-2.426-.887-4.914-1.441-11.156-.683-7.686-1.168-10.256-2.378-12.58-.815-1.565-1.933-2.568-6.79-6.09-7.348-5.33-9.723-7.646-11.425-11.14-1.14-2.342-1.722-4.608-1.73-6.742-.011-3.111 1.294-4.448 3.34-3.419 1.68.846 3.71 2.63 9.728 8.548 4.937 4.854 5.846 5.582 6.347 5.081.434-.434.478-2.389.212-9.371-.415-10.845-.13-15.374 1.137-18.096 1.08-2.324 2.755-3.746 5.22-4.434 1.114-.31 4.105-.377 5.807-.127 5.877.86 9.662 2.97 12.237 6.817 1.237 1.848 1.83 3.288 4.062 9.848 2.748 8.08 4.21 11.35 5.704 12.763.79.748 1.315.902 2.244.66 1.87-.487 3.308-1.455 11.89-7.997 4.765-3.633 6.708-4.7 8.12-4.462 1.988.336 2.188 3.555.448 7.209-1.028 2.158-2.498 4.121-4.477 5.978-1.17 1.098-3.585 3.062-7.39 6.011-6.085 4.715-8.21 7.435-8.611 11.02-.447 3.99 1.745 7.462 5.502 8.714 2.613.87 5.344.68 10.958-.763 3.738-.96 7.492-2.15 16.059-5.085 1.845-.632 3.45-1.15 3.565-1.15.197-.002.196.033-.015.587-.504 1.327-2.294 4.246-4.085 6.662-2.719 3.668-6.413 7.495-9.875 10.23-6.14 4.85-18.749 10.56-28.719 13.005-5.196 1.274-10.111 1.825-13.43 1.506zm-9.78-58.31c.346-.345.687-1.172.935-2.264.258-1.139.222-5.144-.056-6.332-.394-1.682-.798-2.357-1.41-2.357-.942 0-1.609 2.39-1.59 5.693.017 2.677.489 4.766 1.206 5.33.403.317.54.306.915-.07zm5.59.074c1.225-.655 1.8-5.87 1.003-9.11-.567-2.308-1.62-2.706-2.315-.876-.612 1.612-.81 5.051-.42 7.285.209 1.196.685 2.383 1.062 2.647.292.204.377.211.67.054z" fill="#890000" fill-opacity=".816"/><path d="M61.236 174.81c-.27.029-.43.294-.56.506-.375.707-.517 1.51-.633 2.288-.143 1.057-.167 2.11-.145 3.184.031 1.104.138 2.222.43 3.29.143.472.298.988.68 1.331.108.085.264.245.402.121.444-.343.64-.897.82-1.408.267-.778.376-1.599.393-2.418a39.17 39.17 0 00-.048-3.517 7.579 7.579 0 00-.297-1.766c-.147-.49-.286-1.013-.625-1.41a.556.556 0 00-.417-.201zm5.82-.106c-.242.018-.39.258-.516.437-.377.643-.523 1.375-.65 2.1a18.79 18.79 0 00-.21 3.457c.007 1.147.134 2.31.499 3.407.161.439.312.912.656 1.245.091.077.22.171.337.081.375-.176.53-.605.68-.952.354-.956.492-1.962.582-2.968.11-1.433.084-2.868-.153-4.276-.136-.72-.308-1.488-.708-2.132-.123-.175-.282-.391-.517-.399z" fill="#fff"/><path d="M64.294 162.195c-2.93-.04-6.045 1.237-7.462 3.93-1.991 3.574-1.57 7.81-1.663 11.745-.06 5.025.376 10.046.24 15.07-.082.521-.002 1.675-.804 1.595-1.643-.749-2.819-2.231-4.155-3.408-3.424-3.265-6.662-6.754-10.397-9.672-.9-.645-2.211-1.425-3.276-.743-1.337 1.127-1.068 3.084-1.032 4.645.476 4.329 2.854 8.269 6.094 11.113 3.734 3.37 8.074 5.98 11.886 9.251 2.675 2.28 3.257 5.969 3.678 9.262.778 5.831.803 11.782 2.221 17.515.853 3.42 2.521 6.815 5.454 8.908 2.596 1.91 5.902 2.527 9.069 2.36 5.965-.037 11.793-1.626 17.418-3.484 7.691-2.692 15.27-6.017 21.862-10.87 2.92-2.245 5.483-4.923 7.923-7.67 2.31-2.854 4.597-5.804 6.14-9.156.242-.403.249-.858-.33-.484-7.428 2.371-14.73 5.232-22.373 6.856-3.389.676-7.28.905-10.192-1.294-3.482-2.496-4.004-7.71-1.87-11.242 2.387-3.84 6.228-6.418 9.714-9.17 3.422-2.776 7.159-5.493 9.218-9.508 1.084-2.086 2.006-4.65 1.098-6.957-.759-1.195-2.479-.748-3.525-.219-3.433 1.942-6.438 4.54-9.6 6.88-2.493 1.808-4.902 3.887-7.827 4.96-1.05.448-2.177-.051-2.803-.94-2.135-2.727-3.094-6.13-4.323-9.315-1.391-3.773-2.453-7.682-4.165-11.33-1.912-3.91-5.657-6.75-9.864-7.771-2.067-.562-4.209-.894-6.354-.857zm2.844 12.16c.96.313 1.139 1.54 1.383 2.393.456 2.645.451 5.464-.436 8.02-.15.646-.977 1.44-1.553.735-1.162-1.456-1.071-3.482-1.172-5.249.055-1.878-.007-3.978 1.11-5.583.17-.187.408-.336.668-.316zm-5.786.124c1.049.304 1.18 1.668 1.413 2.569.375 2.612.459 5.4-.506 7.898-.178.675-1.139 1.415-1.617.571-1.244-2.084-1.095-4.646-1.012-6.986.175-1.35.202-2.993 1.304-3.949a.718.718 0 01.418-.103z" fill="none"/><path d="M64.291 162.017c-2.875-.03-5.933 1.154-7.439 3.725-2.074 3.387-1.797 7.516-1.86 11.325-.075 5.16.328 10.314.259 15.472-.098.584.075 1.432-.453 1.825-1.024-.204-1.72-1.134-2.517-1.753-4.025-3.704-7.704-7.798-11.994-11.206-.964-.716-2.298-1.52-3.5-.926-1.442 1.029-1.27 3.015-1.244 4.575.369 4.322 2.644 8.327 5.826 11.219 3.747 3.488 8.185 6.141 12.08 9.438 2.24 1.803 3.091 4.712 3.512 7.434 1.001 6.28.946 12.717 2.371 18.936.715 2.916 1.867 5.812 3.974 8.01 2.568 2.758 6.433 4.017 10.145 3.858 5.915.08 11.714-1.416 17.306-3.209 7.727-2.62 15.322-5.907 22.017-10.625 3.179-2.276 5.891-5.13 8.507-8.015 2.376-2.892 4.7-5.9 6.312-9.296.127-.284.506-1.07-.097-.987-7.473 2.348-14.804 5.247-22.466 6.91-3.24.651-6.903 1.006-9.835-.867-2.643-1.585-3.906-4.839-3.49-7.828.353-3.57 3.09-6.274 5.665-8.526 4.192-3.603 8.978-6.58 12.587-10.822 1.89-2.529 3.643-5.583 3.28-8.856-.036-.985-.724-2.017-1.807-1.962-2.13-.06-3.816 1.514-5.494 2.606-4.21 2.958-8.052 6.442-12.511 9.034-1.065.523-2.498 1.368-3.613.51-1.991-1.808-2.837-4.454-3.84-6.872-1.811-4.58-3.105-9.372-5.054-13.904-1.745-3.843-5.171-6.841-9.211-8.06-2.393-.755-4.902-1.204-7.416-1.163zm2.834 12.516c.801.307.952 1.35 1.183 2.08.503 2.584.47 5.363-.303 7.87-.162.464-.592 1.432-1.21 1.01-1.064-1.04-1.067-2.682-1.217-4.055-.06-2.15-.148-4.45.845-6.41.157-.24.386-.51.702-.495zm-5.787.124c.834.271.968 1.348 1.184 2.08.454 2.585.517 5.387-.321 7.891-.174.469-.656 1.42-1.254.967-1.156-1.489-1.121-3.492-1.197-5.304.054-1.787.017-3.728.99-5.295.144-.183.35-.358.598-.34z" fill="#561212"/><path d="M64.266 162.02c-3.076-.11-6.399 1.354-7.742 4.253-1.8 3.198-1.469 6.977-1.497 10.505-.005 5.635.156 11.273.013 16.906.086.484-.434.776-.788.41-2.103-1.5-3.844-3.45-5.74-5.197-2.841-2.684-5.562-5.529-8.688-7.887-.96-.65-2.544-1.215-3.465-.217-1.167 1.41-.83 3.4-.739 5.087.597 4.565 3.369 8.58 6.87 11.456 3.614 3.125 7.721 5.63 11.292 8.803 2.597 2.435 3.05 6.174 3.457 9.52.75 5.977.825 12.085 2.46 17.917 1.074 3.93 3.634 7.622 7.466 9.263 2.56 1.208 5.443 1.265 8.215 1.105 6.52-.278 12.837-2.211 18.935-4.413 7.176-2.695 14.24-5.99 20.284-10.766 3.419-3.083 6.764-6.304 9.426-10.082 1.448-2.06 2.977-4.139 3.85-6.519.17-.605-.606-.343-.888-.208-7.06 2.168-13.977 4.832-21.17 6.538-2.737.58-5.654 1.032-8.402.28-2.98-.801-5.369-3.47-5.633-6.574-.383-2.892.827-5.773 2.786-7.865 4.542-4.961 10.672-8.17 15.09-13.265 1.647-2.018 3.131-4.354 3.522-6.974.09-1.307.445-2.9-.671-3.892-1.228-.85-2.85-.151-4.01.511-5.264 3.267-9.793 7.605-15.153 10.729-1.059.533-2.502 1.413-3.558.392-2.362-2.198-3.17-5.453-4.352-8.341-1.7-4.423-2.919-9.042-5-13.31-2.14-3.923-6.14-6.644-10.48-7.556a22.069 22.069 0 00-5.69-.61zm3.081 12.788c.988 1.065.996 2.638 1.162 4.003.133 2.012-.031 4.092-.75 5.984-.139.315-.363.686-.676.69-.322-.173-.638-.561-.734-.835-.19-.02-.017-.251-.234-.282.116-.292-.236-.32-.096-.623-.463-1.58-.275-3.295-.308-4.932-.037-1.199.218-2.399.645-3.495-.067-.134.23-.075.173-.268.24-.244.536-.722.818-.242zm-6.02-.04c.312.039.511.388.578.572.185.025.026.258.232.297-.076.198.168.32.11.53.202.173.003.485.203.706.295 2.002.357 4.067.087 6.077-.231.896-.36 2.005-1.144 2.594-.24.179-.283-.067-.455-.154-1.346-2.027-1.025-4.572-1.033-6.877.122-1.287.2-2.855 1.288-3.721a.277.277 0 01.133-.024z"/><path d="M61.255 174.891c-.845.466-.982 1.618-1.137 2.497-.166 2.281-.287 4.642.303 6.873.189.431.436 1.313 1.03 1.174 1.246-1.493 1.095-3.616 1.1-5.446-.084-1.693.117-3.671-1.069-5.04a.347.347 0 00-.227-.057zm5.746-.113c-.667.326-.721 1.279-.947 1.914-.358 2.126-.352 4.327-.085 6.463.257.756.34 1.81 1.1 2.234.935-.586 1.012-1.898 1.202-2.893.22-2.367.282-4.869-.583-7.12-.137-.263-.34-.622-.687-.598z" fill="none"/><path fill="none" d="M0 126.574h201.95V297H0z"/><path d="M64.144 162.576c-3.752-.142-7.385 2.498-8.004 6.27-1.086 6.855-.232 13.843-.399 20.749-.25 1.579.492 3.593-.597 4.908-1.678.716-2.864-1.449-4.07-2.262-4.172-3.695-7.808-8.087-12.486-11.166-1.75-1.066-2.727 1.55-2.448 2.92-.052 5.347 3.148 10.114 7.287 13.257 3.88 3.414 8.556 6.006 12.01 9.9 2.588 4.15 2.327 9.309 2.982 13.989.675 6.312.835 13.33 5.19 18.423 3.482 4.059 9.326 4.256 14.232 3.556 11.195-1.617 22.026-5.775 31.8-11.597 5.957-3.882 11.137-9.102 15.125-15.016a47.983 47.983 0 002.31-4.067c-7.965 2.703-15.909 5.72-24.223 7.163-4.379.924-6.441-2.72-8.02-7.19-1.568-4.157-2.7-6.945.5-9.695 5.156-5.158 12.126-8.595 15.927-15.016.91-2.055 2.18-4.67 1.022-6.844-1.564-1.157-3.497.454-4.826 1.299-5.154 3.387-9.686 7.771-15.232 10.529-2.414 1.155-4.137-1.474-4.996-3.351-3.334-6.58-4.546-14.085-8.346-20.435-3.212-4.634-9.41-6.21-14.738-6.324zm3.037 11.34c2.157.954 1.898 3.912 2.048 5.882-.124 2.118.214 4.984-1.756 6.349-1.897.351-2.296-2.25-2.456-3.61-.126-2.723-.43-5.881 1.194-8.232.253-.248.604-.44.97-.389zm-5.754.279c2.004.53 1.763 3.235 1.932 4.858-.145 2.312.532 5.422-1.588 7.015-1.824.545-2.377-2.007-2.481-3.334-.07-2.634-.662-5.707.948-8 .298-.334.73-.578 1.19-.54zm77.562 16.854c-6.507.04-13.042 5.316-13.092 12.092-.235 2.905 1.192 5.485 2.548 7.918 1.787 1.592 4.02 3.28 6.47 4.008 6.593 2.292 14.78-1.112 17.153-7.828 2.228-5.73-1.259-12.335-6.648-14.795a13.991 13.991 0 00-6.431-1.395z"/></g></svg>